# xmcd
#
# Track frame offsets:
#       150
#       13710
#       28764
#       44196
#       55037
#       67757
#       80070
#       93211
#       105426
#       120579
#       134522
#       149385
#       173979
#       186312
#       203666
#       220871
#       234392
#       253748
#
# Disc length: 3562 seconds
#
# Revision: 1
# Processed by: cddbd v1.5.2PL0 Copyright (c) Steve Scherf et al.
# Submitted via: MusiCat 1.1
#
DISCID=010de812
DTITLE=Ike and Tina Turner - The Unforgettable Music Of Ike and Tina Turner
DYEAR=1900
DGENRE=
TTITLE0=Get Back
TTITLE1=Sweet Rhode Island Red
TTITLE2=Crazy 'Bout You Baby
TTITLE3=Sexy Ida part 1
TTITLE4=Sexy Ida part 2
TTITLE5=Proud Mary
TTITLE6=I'm Yours
TTITLE7=With A Little Help From My Friends
TTITLE8=Come Together
TTITLE9=Up In Heah
TTITLE10=Living In The City
TTITLE11=Nutbush City Limits
TTITLE12=I Want To Take You Higher
TTITLE13=River Deep, Mountain High
TTITLE14=Baby, Get It On
TTITLE15=Honky Tonk Woman
TTITLE16=Sweet Black Angel
TTITLE17=I've Been Lovin' You Too Long.
EXTD=Signature\nSIGNCD2167\n
EXTT0=
EXTT1=
EXTT2=
EXTT3=
EXTT4=
EXTT5=
EXTT6=
EXTT7=
EXTT8=
EXTT9=
EXTT10=
EXTT11=
EXTT12=
EXTT13=
EXTT14=
EXTT15=
EXTT16=
EXTT17=
PLAYORDER=
